<?xml version="1.0" encoding="UTF-8" standalone="no"?>
<svg
  width="500px"
  height="500px"
  viewBox="0 0 500 500"
  version="1.1"
  xmlns="http://www.w3.org/2000/svg"
  xmlns:xlink="http://www.w3.org/1999/xlink"
>
  <!-- Generator: Sketch 41.2 (35397) - http://www.bohemiancoding.com/sketch -->
  <title>img-coverart</title>
  <desc>Created with Sketch.</desc>
  <defs>
    <rect id="path-1" x="0" y="0" width="500" height="500"></rect>
  </defs>
  <g id="Page-1" stroke="none" stroke-width="1" fill="none" fill-rule="evenodd">
    <g
      id="Account-details:-membership-asin-doc"
      transform="translate(-87.000000, -867.000000)"
    >
      <g id="Group" transform="translate(65.000000, 780.000000)">
        <g id="img-coverart" transform="translate(22.000000, 87.000000)">
          <mask id="mask-2" fill="white">
            <use xlink:href="#path-1"></use>
          </mask>
          <use id="mask" fill="#BBBBBB" xlink:href="#path-1"></use>
          <path
            d="M251.314605,307.191176 L126.315789,229.090627 L126.315789,250.186562 L251.314605,328.289474 L376.315789,250.186562 L376.315789,229.090627 L251.314605,307.191176 Z M300.338486,257.198698 L318.743522,245.697622 L318.757695,245.697622 C304.238718,223.902504 279.436447,209.540923 251.277279,209.540923 C223.146464,209.540923 198.363093,223.878883 183.839389,245.643293 L183.952782,245.655104 C184.933157,244.762229 185.930063,243.885889 186.955321,243.03317 C222.033803,213.960416 272.668324,220.342816 300.338486,257.198698 Z M214.370819,264.53208 C220.980666,259.892912 228.629944,257.226098 236.796575,257.226098 C250.228874,257.226098 262.283922,264.413975 270.556862,275.811119 L288.30989,264.716324 L288.319343,264.716324 C280.157438,253.040453 266.61174,245.39669 251.277753,245.39669 C236.026448,245.39669 222.549266,252.95778 214.370819,264.53208 Z M166.789394,213.901363 C218.255462,173.164548 291.088955,184.079823 329.878678,238.171964 L330.136173,238.568797 L349.186133,226.701596 C328.31953,194.777784 292.263042,173.684211 251.278701,173.684211 C210.866048,173.684211 174.47174,194.572281 153.416152,226.633095 C157.283311,222.56083 162.29621,217.458689 166.789394,213.901363 Z"
            id="icn-audible"
            fill="#FFFFFF"
            mask="url(#mask-2)"
          ></path>
        </g>
      </g>
    </g>
  </g>
</svg>
